<svg width="494" height="104" viewBox="0 0 494 104" fill="none" xmlns="http://www.w3.org/2000/svg">
<path d="M0 4.84914C0 2.17103 2.9359 0 6.55752 0C10.1791 0 13.115 2.17103 13.115 4.84914V98.5991C13.115 101.277 10.1791 103.448 6.55752 103.448C2.9359 103.448 0 101.277 0 98.5991V4.84914Z" fill="url(#paint0_linear_10_64)"/>
<path d="M32.059 4.84914C32.059 2.17103 34.9949 0 38.6165 0C42.2381 0 45.174 2.17103 45.174 4.84914V98.5991C45.174 101.277 42.2381 103.448 38.6165 103.448C34.9949 103.448 32.059 101.277 32.059 98.5991V4.84914Z" fill="url(#paint1_linear_10_64)"/>
<path d="M64.118 4.84914C64.118 2.17103 67.0539 0 70.6755 0C74.2971 0 77.233 2.17103 77.233 4.84914V98.5991C77.233 101.277 74.2971 103.448 70.6755 103.448C67.0539 103.448 64.118 101.277 64.118 98.5991V4.84914Z" fill="url(#paint2_linear_10_64)"/>
<path d="M96.177 4.84914C96.177 2.17103 99.1129 0 102.735 0C106.356 0 109.292 2.17103 109.292 4.84914V98.5991C109.292 101.277 106.356 103.448 102.735 103.448C99.1129 103.448 96.177 101.277 96.177 98.5991V4.84914Z" fill="url(#paint3_linear_10_64)"/>
<path d="M128.236 4.84914C128.236 2.17103 131.172 0 134.794 0C138.415 0 141.351 2.17103 141.351 4.84914V98.5991C141.351 101.277 138.415 103.448 134.794 103.448C131.172 103.448 128.236 101.277 128.236 98.5991V4.84914Z" fill="url(#paint4_linear_10_64)"/>
<path d="M160.295 4.84914C160.295 2.17103 163.231 0 166.853 0C170.474 0 173.41 2.17103 173.41 4.84914V98.5991C173.41 101.277 170.474 103.448 166.853 103.448C163.231 103.448 160.295 101.277 160.295 98.5991V4.84914Z" fill="url(#paint5_linear_10_64)"/>
<path d="M192.354 4.84914C192.354 2.17103 195.29 0 198.911 0C202.533 0 205.469 2.17103 205.469 4.84914V98.5991C205.469 101.277 202.533 103.448 198.911 103.448C195.29 103.448 192.354 101.277 192.354 98.5991V4.84914Z" fill="url(#paint6_linear_10_64)"/>
<path d="M224.413 4.84914C224.413 2.17103 227.349 0 230.97 0C234.592 0 237.528 2.17103 237.528 4.84914V98.5991C237.528 101.277 234.592 103.448 230.97 103.448C227.349 103.448 224.413 101.277 224.413 98.5991V4.84914Z" fill="url(#paint7_linear_10_64)"/>
<path d="M256.472 4.84914C256.472 2.17103 259.408 0 263.029 0C266.651 0 269.587 2.17103 269.587 4.84914V98.5991C269.587 101.277 266.651 103.448 263.029 103.448C259.408 103.448 256.472 101.277 256.472 98.5991V4.84914Z" fill="url(#paint8_linear_10_64)"/>
<path d="M288.531 4.84914C288.531 2.17103 291.467 0 295.089 0C298.71 0 301.646 2.17103 301.646 4.84914V98.5991C301.646 101.277 298.71 103.448 295.089 103.448C291.467 103.448 288.531 101.277 288.531 98.5991V4.84914Z" fill="url(#paint9_linear_10_64)"/>
<path d="M320.59 4.84914C320.59 2.17103 323.526 0 327.147 0C330.769 0 333.705 2.17103 333.705 4.84914V98.5991C333.705 101.277 330.769 103.448 327.147 103.448C323.526 103.448 320.59 101.277 320.59 98.5991V4.84914Z" fill="url(#paint10_linear_10_64)"/>
<path d="M352.649 4.84914C352.649 2.17103 355.585 0 359.206 0C362.828 0 365.764 2.17103 365.764 4.84914V98.5991C365.764 101.277 362.828 103.448 359.206 103.448C355.585 103.448 352.649 101.277 352.649 98.5991V4.84914Z" fill="url(#paint11_linear_10_64)"/>
<path d="M384.708 4.84914C384.708 2.17103 387.644 0 391.265 0C394.887 0 397.823 2.17103 397.823 4.84914V98.5991C397.823 101.277 394.887 103.448 391.265 103.448C387.644 103.448 384.708 101.277 384.708 98.5991V4.84914Z" fill="url(#paint12_linear_10_64)"/>
<path d="M416.767 4.84914C416.767 2.17103 419.703 0 423.324 0C426.946 0 429.882 2.17103 429.882 4.84914V98.5991C429.882 101.277 426.946 103.448 423.324 103.448C419.703 103.448 416.767 101.277 416.767 98.5991V4.84914Z" fill="url(#paint13_linear_10_64)"/>
<path d="M448.826 4.84914C448.826 2.17103 451.762 0 455.383 0C459.005 0 461.941 2.17103 461.941 4.84914V98.5991C461.941 101.277 459.005 103.448 455.383 103.448C451.762 103.448 448.826 101.277 448.826 98.5991V4.84914Z" fill="url(#paint14_linear_10_64)"/>
<path d="M480.885 4.84914C480.885 2.17103 483.821 0 487.442 0C491.064 0 494 2.17103 494 4.84914V98.5991C494 101.277 491.064 103.448 487.442 103.448C483.821 103.448 480.885 101.277 480.885 98.5991V4.84914Z" fill="url(#paint15_linear_10_64)"/>
<defs>
<linearGradient id="paint0_linear_10_64" x1="0" y1="51.7241" x2="494" y2="51.7241" gradientUnits="userSpaceOnUse">
<stop stop-color="#090493"/>
<stop offset="0.254808" stop-color="#007D00"/>
<stop offset="0.5" stop-color="#FFB20B"/>
<stop offset="0.75" stop-color="#FF7700"/>
<stop offset="1" stop-color="#B90000"/>
</linearGradient>
<linearGradient id="paint1_linear_10_64" x1="0" y1="51.7241" x2="494" y2="51.7241" gradientUnits="userSpaceOnUse">
<stop stop-color="#090493"/>
<stop offset="0.254808" stop-color="#007D00"/>
<stop offset="0.5" stop-color="#FFB20B"/>
<stop offset="0.75" stop-color="#FF7700"/>
<stop offset="1" stop-color="#B90000"/>
</linearGradient>
<linearGradient id="paint2_linear_10_64" x1="0" y1="51.7241" x2="494" y2="51.7241" gradientUnits="userSpaceOnUse">
<stop stop-color="#090493"/>
<stop offset="0.254808" stop-color="#007D00"/>
<stop offset="0.5" stop-color="#FFB20B"/>
<stop offset="0.75" stop-color="#FF7700"/>
<stop offset="1" stop-color="#B90000"/>
</linearGradient>
<linearGradient id="paint3_linear_10_64" x1="0" y1="51.7241" x2="494" y2="51.7241" gradientUnits="userSpaceOnUse">
<stop stop-color="#090493"/>
<stop offset="0.254808" stop-color="#007D00"/>
<stop offset="0.5" stop-color="#FFB20B"/>
<stop offset="0.75" stop-color="#FF7700"/>
<stop offset="1" stop-color="#B90000"/>
</linearGradient>
<linearGradient id="paint4_linear_10_64" x1="0" y1="51.7241" x2="494" y2="51.7241" gradientUnits="userSpaceOnUse">
<stop stop-color="#090493"/>
<stop offset="0.254808" stop-color="#007D00"/>
<stop offset="0.5" stop-color="#FFB20B"/>
<stop offset="0.75" stop-color="#FF7700"/>
<stop offset="1" stop-color="#B90000"/>
</linearGradient>
<linearGradient id="paint5_linear_10_64" x1="0" y1="51.7241" x2="494" y2="51.7241" gradientUnits="userSpaceOnUse">
<stop stop-color="#090493"/>
<stop offset="0.254808" stop-color="#007D00"/>
<stop offset="0.5" stop-color="#FFB20B"/>
<stop offset="0.75" stop-color="#FF7700"/>
<stop offset="1" stop-color="#B90000"/>
</linearGradient>
<linearGradient id="paint6_linear_10_64" x1="0" y1="51.7241" x2="494" y2="51.7241" gradientUnits="userSpaceOnUse">
<stop stop-color="#090493"/>
<stop offset="0.254808" stop-color="#007D00"/>
<stop offset="0.5" stop-color="#FFB20B"/>
<stop offset="0.75" stop-color="#FF7700"/>
<stop offset="1" stop-color="#B90000"/>
</linearGradient>
<linearGradient id="paint7_linear_10_64" x1="0" y1="51.7241" x2="494" y2="51.7241" gradientUnits="userSpaceOnUse">
<stop stop-color="#090493"/>
<stop offset="0.254808" stop-color="#007D00"/>
<stop offset="0.5" stop-color="#FFB20B"/>
<stop offset="0.75" stop-color="#FF7700"/>
<stop offset="1" stop-color="#B90000"/>
</linearGradient>
<linearGradient id="paint8_linear_10_64" x1="0" y1="51.7241" x2="494" y2="51.7241" gradientUnits="userSpaceOnUse">
<stop stop-color="#090493"/>
<stop offset="0.254808" stop-color="#007D00"/>
<stop offset="0.5" stop-color="#FFB20B"/>
<stop offset="0.75" stop-color="#FF7700"/>
<stop offset="1" stop-color="#B90000"/>
</linearGradient>
<linearGradient id="paint9_linear_10_64" x1="0" y1="51.7241" x2="494" y2="51.7241" gradientUnits="userSpaceOnUse">
<stop stop-color="#090493"/>
<stop offset="0.254808" stop-color="#007D00"/>
<stop offset="0.5" stop-color="#FFB20B"/>
<stop offset="0.75" stop-color="#FF7700"/>
<stop offset="1" stop-color="#B90000"/>
</linearGradient>
<linearGradient id="paint10_linear_10_64" x1="0" y1="51.7241" x2="494" y2="51.7241" gradientUnits="userSpaceOnUse">
<stop stop-color="#090493"/>
<stop offset="0.254808" stop-color="#007D00"/>
<stop offset="0.5" stop-color="#FFB20B"/>
<stop offset="0.75" stop-color="#FF7700"/>
<stop offset="1" stop-color="#B90000"/>
</linearGradient>
<linearGradient id="paint11_linear_10_64" x1="0" y1="51.7241" x2="494" y2="51.7241" gradientUnits="userSpaceOnUse">
<stop stop-color="#090493"/>
<stop offset="0.254808" stop-color="#007D00"/>
<stop offset="0.5" stop-color="#FFB20B"/>
<stop offset="0.75" stop-color="#FF7700"/>
<stop offset="1" stop-color="#B90000"/>
</linearGradient>
<linearGradient id="paint12_linear_10_64" x1="0" y1="51.7241" x2="494" y2="51.7241" gradientUnits="userSpaceOnUse">
<stop stop-color="#090493"/>
<stop offset="0.254808" stop-color="#007D00"/>
<stop offset="0.5" stop-color="#FFB20B"/>
<stop offset="0.75" stop-color="#FF7700"/>
<stop offset="1" stop-color="#B90000"/>
</linearGradient>
<linearGradient id="paint13_linear_10_64" x1="0" y1="51.7241" x2="494" y2="51.7241" gradientUnits="userSpaceOnUse">
<stop stop-color="#090493"/>
<stop offset="0.254808" stop-color="#007D00"/>
<stop offset="0.5" stop-color="#FFB20B"/>
<stop offset="0.75" stop-color="#FF7700"/>
<stop offset="1" stop-color="#B90000"/>
</linearGradient>
<linearGradient id="paint14_linear_10_64" x1="0" y1="51.7241" x2="494" y2="51.7241" gradientUnits="userSpaceOnUse">
<stop stop-color="#090493"/>
<stop offset="0.254808" stop-color="#007D00"/>
<stop offset="0.5" stop-color="#FFB20B"/>
<stop offset="0.75" stop-color="#FF7700"/>
<stop offset="1" stop-color="#B90000"/>
</linearGradient>
<linearGradient id="paint15_linear_10_64" x1="0" y1="51.7241" x2="494" y2="51.7241" gradientUnits="userSpaceOnUse">
<stop stop-color="#090493"/>
<stop offset="0.254808" stop-color="#007D00"/>
<stop offset="0.5" stop-color="#FFB20B"/>
<stop offset="0.75" stop-color="#FF7700"/>
<stop offset="1" stop-color="#B90000"/>
</linearGradient>
</defs>
</svg>
