<svg width="16" height="16" viewBox="0 0 16 16" fill="none" xmlns="http://www.w3.org/2000/svg">
<g clip-path="url(#clip0_74_110)">
<path d="M8 12L3 7L4.4 5.55L7 8.15V0H9V8.15L11.6 5.55L13 7L8 12ZM2 16C1.45 16 0.979333 15.8043 0.588 15.413C0.196666 15.0217 0.000666667 14.5507 0 14V11H2V14H14V11H16V14C16 14.55 15.8043 15.021 15.413 15.413C15.0217 15.805 14.5507 16.0007 14 16H2Z" fill="url(#paint0_linear_74_110)"/>
</g>
<defs>
<linearGradient id="paint0_linear_74_110" x1="7.99999" y1="8.29766e-06" x2="7.99999" y2="16" gradientUnits="userSpaceOnUse">
<stop stop-color="#090493"/>
<stop offset="0.254808" stop-color="#007D00"/>
<stop offset="0.5" stop-color="#FFB20B"/>
<stop offset="0.75" stop-color="#FF7700"/>
<stop offset="1" stop-color="#B90000"/>
</linearGradient>
<clipPath id="clip0_74_110">
<rect width="16" height="16" fill="white"/>
</clipPath>
</defs>
</svg>
