<svg width="263" height="23" viewBox="0 0 263 23" fill="none" xmlns="http://www.w3.org/2000/svg">
<g clip-path="url(#clip0_5_2)">
<mask id="mask0_5_2" style="mask-type:luminance" maskUnits="userSpaceOnUse" x="0" y="0" width="263" height="23">
<path d="M2.01072e-06 2.29922e-05L0 23L263 23L263 4.59844e-05L2.01072e-06 2.29922e-05Z" fill="white"/>
</mask>
<g mask="url(#mask0_5_2)">
<mask id="mask1_5_2" style="mask-type:luminance" maskUnits="userSpaceOnUse" x="0" y="0" width="263" height="23">
<path d="M263 3.44363e-05L263 23L0 23L2.01072e-06 1.14441e-05L263 3.44363e-05Z" fill="white"/>
</mask>
<g mask="url(#mask1_5_2)">
<path d="M12.606 1.34781C12.021 0.762014 11.071 0.762014 10.485 1.34781L0.938996 10.8937C0.353996 11.4795 0.353996 12.429 0.938996 13.0148L10.485 22.5607C11.071 23.1465 12.021 23.1464 12.606 22.5607C13.192 21.9749 13.192 21.0254 12.606 20.4396L5.621 13.4542L234 13.4543L234 10.4542L5.621 10.4542L12.606 3.46892C13.192 2.88312 13.192 1.93361 12.606 1.34781Z" fill="#F9F5FF"/>
<path d="M260.167 10.4543L260.167 13.4544L263 13.4544L263 10.4543L260.167 10.4543ZM248.833 10.4543L248.833 13.4544L254.5 13.4544L254.5 10.4543L248.833 10.4543ZM237.5 10.4543L237.5 13.4544L243.167 13.4544L243.167 10.4543L237.5 10.4543ZM229 10.4543L229 13.4544L231.833 13.4544L231.833 10.4543L229 10.4543Z" fill="#F9F5FF"/>
</g>
</g>
</g>
<defs>
<clipPath id="clip0_5_2">
<rect width="263" height="23" fill="white" transform="translate(263 23) rotate(-180)"/>
</clipPath>
</defs>
</svg>
