<svg width="23" height="263" viewBox="0 0 23 263" fill="none" xmlns="http://www.w3.org/2000/svg">
<g clip-path="url(#clip0_79_2)">
<path d="M21.6522 12.606C22.238 12.021 22.238 11.071 21.6522 10.485L12.1063 0.938995C11.5205 0.353995 10.571 0.353995 9.98524 0.938995L0.439337 10.485C-0.146448 11.071 -0.146444 12.021 0.439337 12.606C1.02512 13.192 1.97464 13.192 2.56043 12.606L9.54578 5.621L9.54577 234H12.5458V5.621L19.5311 12.606C20.1169 13.192 21.0664 13.192 21.6522 12.606Z" fill="#F9F5FF"/>
<path d="M12.5457 260.167H9.54565V263L12.5457 263V260.167ZM12.5457 248.833H9.54565V254.5H12.5457V248.833ZM12.5457 237.5H9.54565V243.167H12.5457V237.5ZM12.5457 229H9.54565V231.833H12.5457V229Z" fill="#F9F5FF"/>
</g>
<defs>
<clipPath id="clip0_79_2">
<rect width="23" height="263" fill="white" transform="matrix(1 0 0 -1 0 263)"/>
</clipPath>
</defs>
</svg>
