<svg width="265" height="81" viewBox="0 0 265 81" fill="none" xmlns="http://www.w3.org/2000/svg">
<path d="M39.5793 23.2597V80.521H17.1676V23.2597H0V0.107808H56.6917V23.2597H39.5793Z" fill="#3C1671"/>
<path d="M93.2745 29.3964V50.5761H85.6802V80.9924H63.2685V0.107894H85.6802V29.3964H93.2745ZM119.767 0.107894V80.9924H97.3547V0.107894H119.767Z" fill="#3C1671"/>
<path d="M156.458 41.3357V62.1772H149.243V80.9924H126.629V30.7412C126.629 21.0152 129.243 13.4602 134.472 8.07618C139.7 2.69201 147.048 8.6122e-05 156.515 8.6122e-05C165.641 8.6122e-05 172.39 2.44116 176.762 7.32345C181.135 12.2059 183.321 19.7416 183.321 29.9308V80.9924H160.165V31.4938C160.165 28.4062 159.804 26.2642 159.082 25.0678C158.359 23.8713 156.838 23.3238 154.975 23.3238C150.395 23.3238 149.196 25.3528 149.243 31.4938V41.3357H156.458Z" fill="#3C1671"/>
<path d="M215.209 23.3177V80.989H192.797V0H221.998C234.805 0 244.833 3.12483 252.083 9.37465C260.694 16.8504 265 26.9964 265 39.8121C265 52.0742 261.32 62.0818 253.96 69.8345C246.6 77.5872 237.123 80.9924 225.531 80.9924C224.17 80.9924 221.943 81.0095 218.852 80.9924V57.434H222.44C235.504 57.434 242.036 51.5702 242.036 39.8428C242.036 28.8261 235.615 23.3177 222.771 23.3177H215.209Z" fill="#3C1671"/>
</svg>
